<svg xmlns="http://www.w3.org/2000/svg" xmlns:ns1="http://sodipodi.sourceforge.net/DTD/sodipodi-0.dtd" xmlns:ns2="http://www.inkscape.org/namespaces/inkscape" id="_0" data-name="0" version="1.1" ns1:docname="free-simple-flower-svg-cut-file-cricut.svg" ns2:version="1.2.1 (9c6d41e410, 2022-07-14)" viewBox="27.24 34.08 251.59 244.24">
    <g id="ARC">
        <path d="m278.62,134.73c2.53,27.82-17.96,52.42-45.78,54.95,5.69,4.98,10.19,11.18,13.17,18.13,11,25.67-.89,55.41-26.56,66.41s-55.4-.89-66.41-26.56c-2.98,6.95-7.48,13.15-13.17,18.13-21.02,18.4-52.97,16.27-71.37-4.74-18.39-21.02-16.27-52.97,4.74-71.37-7.53-.68-14.81-3.05-21.31-6.92-23.99-14.3-31.85-45.35-17.54-69.34,14.3-23.99,45.34-31.85,69.33-17.55-1.67-7.37-1.67-15.03,0-22.4,6.19-27.24,33.29-44.31,60.53-38.12,27.23,6.19,44.3,33.29,38.11,60.52,6.5-3.87,13.78-6.24,21.31-6.92,27.82-2.53,52.42,17.96,54.95,45.78Zm-88.09,29.02c0-20.7-16.79-37.48-37.49-37.48s-37.48,16.78-37.48,37.48,16.78,37.49,37.48,37.49,37.49-16.78,37.49-37.49Z" style="fill: #ee446d;" id="path8"/>
    </g>
</svg>